<svg width="96" height="96" xmlns="http://www.w3.org/2000/svg" xmlns:xlink="http://www.w3.org/1999/xlink" overflow="hidden"><defs><clipPath id="clip0"><rect x="204" y="418" width="96" height="96"/></clipPath></defs><g clip-path="url(#clip0)" transform="translate(-204 -418)"><path d="M254 448 250 448C247.8 448 246 446.2 246 444L246 436C246 433.8 247.8 432 250 432L254 432C256.2 432 258 433.8 258 436L258 444C258 446.2 256.2 448 254 448Z"/><path d="M284 468 260 468 260 464 284 464 284 468ZM284 480 260 480 260 476 284 476 284 480ZM284 492 260 492 260 488 284 488 284 492ZM252 492 220 492 220 484C220 482.8 220.6 481.6 221.6 480.8 223.8 479.2 226.6 477.8 229.4 477 231.6 476.4 233.8 476 236 476 238.4 476 240.6 476.4 242.6 477 245.4 477.8 248.2 479 250.4 480.8 251.4 481.6 252 482.8 252 484L252 492ZM236 458C240.4 458 244 461.6 244 466 244 470.4 240.4 474 236 474 231.6 474 228 470.4 228 466 228 461.6 231.6 458 236 458ZM288 444 262 444C262 448.4 258.4 452 254 452L250 452C245.6 452 242 448.4 242 444L216 444C213.8 444 212 445.8 212 448L212 496C212 498.2 213.8 500 216 500L288 500C290.2 500 292 498.2 292 496L292 448C292 445.8 290.2 444 288 444Z"/></g></svg>