<svg width="96" height="96" xmlns="http://www.w3.org/2000/svg" xmlns:xlink="http://www.w3.org/1999/xlink" overflow="hidden"><defs><clipPath id="clip0"><rect x="79" y="84" width="96" height="96"/></clipPath></defs><g clip-path="url(#clip0)" transform="translate(-79 -84)"><path d="M129 114 125 114C122.8 114 121 112.2 121 110L121 102C121 99.8 122.8 98 125 98L129 98C131.2 98 133 99.8 133 102L133 110C133 112.2 131.2 114 129 114Z" fill="#447EF9"/><path d="M159 134 135 134 135 130 159 130 159 134ZM159 146 135 146 135 142 159 142 159 146ZM159 158 135 158 135 154 159 154 159 158ZM127 158 95 158 95 150C95 148.8 95.6 147.6 96.6 146.8 98.8 145.2 101.6 143.8 104.4 143 106.6 142.4 108.8 142 111 142 113.4 142 115.6 142.4 117.6 143 120.4 143.8 123.2 145 125.4 146.8 126.4 147.6 127 148.8 127 150L127 158ZM111 124C115.4 124 119 127.6 119 132 119 136.4 115.4 140 111 140 106.6 140 103 136.4 103 132 103 127.6 106.6 124 111 124ZM163 110 137 110C137 114.4 133.4 118 129 118L125 118C120.6 118 117 114.4 117 110L91 110C88.8 110 87 111.8 87 114L87 162C87 164.2 88.8 166 91 166L163 166C165.2 166 167 164.2 167 162L167 114C167 111.8 165.2 110 163 110Z" fill="#447EF9"/></g></svg>