<svg width="96" height="96" xmlns="http://www.w3.org/2000/svg" xmlns:xlink="http://www.w3.org/1999/xlink" overflow="hidden"><defs><clipPath id="clip0"><rect x="372" y="157" width="96" height="96"/></clipPath></defs><g clip-path="url(#clip0)" transform="translate(-372 -157)"><path d="M434.93 207C431.55 204.12 427.16 202.77 423 201.47L423 177.29C427.039 177.674 430.814 179.469 433.66 182.36L438.46 177.76C434.352 173.581 428.848 171.064 423 170.69L423 162 417 162 417 171.07C414.945 171.47 412.963 172.178 411.12 173.17 403.54 177.3 399.67 187 402.78 195.17 405.19 201.47 411 204.28 417 206.39L417 232.57C412.35 232 408.49 229.33 405.29 226L400.49 230.59C402.776 233.183 405.501 235.353 408.54 237 411.197 238.264 414.066 239.02 417 239.23L417 248 423 248 423 239C429.88 237.85 436.2 233.62 438.92 227 441.64 220.38 440.65 211.89 434.93 207ZM412 196.73C406.5 192.09 407.84 183.11 413.67 179.39 414.703 178.727 415.824 178.212 417 177.86L417 199.55C415.19 198.891 413.5 197.939 412 196.73ZM430.09 228.55C428.138 230.458 425.676 231.76 423 232.3L423 208.41C427 209.78 431.59 211.52 433.22 215.78 434.85 220.04 433.21 225.37 430.09 228.55Z" fill="#447EF9"/></g></svg>