<svg width="96" height="96" xmlns="http://www.w3.org/2000/svg" xmlns:xlink="http://www.w3.org/1999/xlink" overflow="hidden"><defs><clipPath id="clip0"><rect x="390" y="360" width="96" height="96"/></clipPath></defs><g clip-path="url(#clip0)" transform="translate(-390 -360)"><path d="M452.93 410C449.55 407.12 445.16 405.77 441 404.47L441 380.29C445.039 380.674 448.814 382.469 451.66 385.36L456.46 380.76C452.352 376.581 446.848 374.064 441 373.69L441 365 435 365 435 374.07C432.945 374.47 430.963 375.178 429.12 376.17 421.54 380.3 417.67 390 420.78 398.17 423.19 404.47 429 407.28 435 409.39L435 435.57C430.35 435 426.49 432.33 423.29 429L418.49 433.59C420.776 436.183 423.501 438.353 426.54 440 429.197 441.264 432.066 442.02 435 442.23L435 451 441 451 441 442C447.88 440.85 454.2 436.62 456.92 430 459.64 423.38 458.65 414.89 452.93 410ZM430 399.73C424.5 395.09 425.84 386.11 431.67 382.39 432.703 381.727 433.824 381.212 435 380.86L435 402.55C433.19 401.892 431.5 400.939 430 399.73ZM448.09 431.55C446.138 433.458 443.676 434.76 441 435.3L441 411.41C445 412.78 449.59 414.52 451.22 418.78 452.85 423.04 451.21 428.37 448.09 431.55Z"/></g></svg>