<svg width="114" height="113" xmlns="http://www.w3.org/2000/svg" xmlns:xlink="http://www.w3.org/1999/xlink" overflow="hidden"><defs><clipPath id="clip0"><rect x="114" y="8" width="114" height="113"/></clipPath></defs><g clip-path="url(#clip0)" transform="translate(-114 -8)"><path d="M89.4583 70.625 23.5417 70.625 23.5417 30.6042 89.4583 30.6042ZM96.5208 28.25C96.5208 25.6497 94.4128 23.5417 91.8125 23.5417L21.1875 23.5417C18.5872 23.5417 16.4792 25.6497 16.4792 28.25L16.4792 77.6875 96.5208 77.6875Z" fill="#FFFFFF" transform="matrix(1.00885 0 0 1 114 8)"/><path d="M63.5625 82.3958 63.5625 83.5729C63.6029 84.1826 63.1412 84.7096 62.5315 84.75 62.4829 84.7532 62.434 84.7532 62.3854 84.75L50.6146 84.75C50.0049 84.7904 49.4779 84.3287 49.4375 83.719 49.4343 83.6704 49.4343 83.6215 49.4375 83.5729L49.4375 82.3958 2.35417 82.3958 2.35417 84.75C2.35417 87.3503 4.46216 89.4583 7.0625 89.4583L105.938 89.4583C108.538 89.4583 110.646 87.3503 110.646 84.75L110.646 82.3958Z" fill="#FFFFFF" transform="matrix(1.00885 0 0 1 114 8)"/><path d="M56.5 34.1354C47.3988 34.1354 40.0208 41.5134 40.0208 50.6146 40.0208 59.7158 47.3988 67.0938 56.5 67.0938 65.6012 67.0938 72.9792 59.7158 72.9792 50.6146 72.9792 41.5134 65.6012 34.1354 56.5 34.1354ZM57.6771 51.7917 63.0799 51.7917C62.4646 55.8495 60.5721 59.6057 57.6771 62.5149ZM57.6771 49.4375 57.6771 38.7025C60.5751 41.6144 62.4678 45.3752 63.0799 49.4375ZM55.3229 49.4375 50.0967 49.4375C50.682 45.4447 52.5107 41.738 55.3229 38.8438ZM55.3229 51.7917 55.3229 62.3854C52.516 59.4874 50.6882 55.7826 50.0967 51.7917ZM47.7307 49.4375 42.6928 49.4375C43.2153 43.2719 47.7663 38.2021 53.8398 37.0193 50.4842 40.3677 48.3354 44.7356 47.7307 49.4375ZM47.7307 51.7917C48.3359 56.5016 50.4938 60.8756 53.8633 64.2217 47.7808 63.0396 43.2207 57.9655 42.6928 51.7917ZM65.4458 51.7917 70.3072 51.7917C69.7917 57.8873 65.3364 62.9218 59.3485 64.1746 62.7024 60.8406 64.8481 56.4828 65.4458 51.7917ZM65.4458 49.4375C64.8433 44.7586 62.7122 40.4096 59.3839 37.0664 65.3539 38.3315 69.791 43.3568 70.3072 49.4375Z" fill="#FFFFFF" transform="matrix(1.00885 0 0 1 114 8)"/></g></svg>