<svg width="303" height="284" xmlns="http://www.w3.org/2000/svg" xmlns:xlink="http://www.w3.org/1999/xlink" overflow="hidden"><defs><clipPath id="clip0"><rect x="232" y="854" width="303" height="284"/></clipPath><clipPath id="clip1"><rect x="346" y="869" width="131" height="130"/></clipPath><clipPath id="clip2"><rect x="346" y="869" width="131" height="130"/></clipPath><clipPath id="clip3"><rect x="346" y="869" width="131" height="130"/></clipPath></defs><g clip-path="url(#clip0)" transform="translate(-232 -854)"><g clip-path="url(#clip1)"><g clip-path="url(#clip2)"><g clip-path="url(#clip3)"><path d="M432.667 909.625C432.667 921.591 422.966 931.292 411 931.292 399.034 931.292 389.333 921.591 389.333 909.625 389.333 897.659 399.034 887.958 411 887.958 422.966 887.958 432.667 897.659 432.667 909.625Z" fill="#447EF9"/><path d="M454.333 980.042 454.333 958.375C454.333 955.125 452.708 951.875 450 949.708 444.042 944.833 436.458 941.583 428.875 939.417 423.458 937.792 417.5 936.708 411 936.708 405.042 936.708 399.083 937.792 393.125 939.417 385.542 941.583 377.958 945.375 372 949.708 369.292 951.875 367.667 955.125 367.667 958.375L367.667 980.042 454.333 980.042Z" fill="#447EF9"/></g></g></g><path d="M535 1024.73C535 1017.18 528.802 1011 521.227 1011 518.473 1011 516.063 1011.69 513.997 1013.06L455.118 1046.7C455.807 1050.47 455.807 1054.25 455.118 1058.37 452.364 1071.07 440.313 1079.65 427.229 1079.65L366.284 1079.65 366.284 1065.92 428.261 1065.92C435.836 1065.92 442.034 1059.74 442.034 1052.19 442.034 1044.64 435.836 1038.46 428.261 1038.46 428.261 1038.46 346.314 1038.46 345.625 1038.46 339.772 1038.46 334.263 1040.18 329.442 1042.92L232 1089.95 280.205 1138C302.585 1115.69 331.508 1107.11 362.841 1107.11L427.229 1107.11C430.327 1107.11 433.082 1106.08 435.492 1104.36L530.179 1035.37C532.934 1032.62 535 1028.85 535 1024.73Z" fill="#447EF9" fill-rule="evenodd"/><path d="M334.5 934.5C334.5 891.974 368.974 857.5 411.5 857.5 454.026 857.5 488.5 891.974 488.5 934.5 488.5 977.026 454.026 1011.5 411.5 1011.5 368.974 1011.5 334.5 977.026 334.5 934.5Z" stroke="#447EF9" stroke-width="6.875" stroke-miterlimit="8" fill="none" fill-rule="evenodd"/></g></svg>