<svg width="302" height="284" xmlns="http://www.w3.org/2000/svg" xmlns:xlink="http://www.w3.org/1999/xlink" overflow="hidden"><defs><clipPath id="clip0"><rect x="354" y="1322" width="302" height="284"/></clipPath><clipPath id="clip1"><rect x="467" y="1336" width="131" height="132"/></clipPath><clipPath id="clip2"><rect x="467" y="1336" width="131" height="132"/></clipPath><clipPath id="clip3"><rect x="467" y="1336" width="131" height="132"/></clipPath></defs><g clip-path="url(#clip0)" transform="translate(-354 -1322)"><g clip-path="url(#clip1)"><g clip-path="url(#clip2)"><g clip-path="url(#clip3)"><path d="M86.6666 40.625C86.6666 52.5911 76.9661 62.2916 65 62.2916 53.0338 62.2916 43.3333 52.5911 43.3333 40.625 43.3333 28.6588 53.0338 18.9583 65 18.9583 76.9661 18.9583 86.6666 28.6588 86.6666 40.625Z" transform="matrix(1 0 0 1 467 1337)"/><path d="M108.333 111.042 108.333 89.375C108.333 86.125 106.708 82.875 104 80.7083 98.0416 75.8333 90.4583 72.5833 82.875 70.4166 77.4583 68.7916 71.5 67.7083 65 67.7083 59.0416 67.7083 53.0833 68.7916 47.125 70.4166 39.5416 72.5833 31.9583 76.375 26 80.7083 23.2917 82.875 21.6667 86.125 21.6667 89.375L21.6667 111.042 108.333 111.042Z" transform="matrix(1 0 0 1 467 1337)"/></g></g></g><path d="M656 1492.73C656 1485.18 649.823 1479 642.273 1479 639.527 1479 637.125 1479.69 635.066 1481.06L576.382 1514.7C577.068 1518.47 577.068 1522.25 576.382 1526.37 573.636 1539.07 561.625 1547.65 548.584 1547.65L487.841 1547.65 487.841 1533.92 549.614 1533.92C557.164 1533.92 563.341 1527.74 563.341 1520.19 563.341 1512.64 557.164 1506.46 549.614 1506.46 549.614 1506.46 467.936 1506.46 467.25 1506.46 461.416 1506.46 455.925 1508.18 451.121 1510.92L354 1557.95 402.045 1606C424.352 1583.69 453.18 1575.11 484.409 1575.11L548.584 1575.11C551.673 1575.11 554.418 1574.08 556.821 1572.36L651.195 1503.37C653.941 1500.62 656 1496.85 656 1492.73Z" fill-rule="evenodd"/><path d="M455.5 1402.5C455.5 1359.97 489.974 1325.5 532.5 1325.5 575.026 1325.5 609.5 1359.97 609.5 1402.5 609.5 1445.03 575.026 1479.5 532.5 1479.5 489.974 1479.5 455.5 1445.03 455.5 1402.5Z" stroke="#000000" stroke-width="6.875" stroke-miterlimit="8" fill="none" fill-rule="evenodd"/></g></svg>