<svg width="96" height="137" xmlns="http://www.w3.org/2000/svg" xmlns:xlink="http://www.w3.org/1999/xlink" overflow="hidden"><defs><clipPath id="clip0"><rect x="123" y="258" width="96" height="137"/></clipPath><clipPath id="clip1"><rect x="123" y="278" width="96" height="97"/></clipPath><clipPath id="clip2"><rect x="123" y="278" width="96" height="97"/></clipPath></defs><g clip-path="url(#clip0)" transform="translate(-123 -258)"><g clip-path="url(#clip1)"><g clip-path="url(#clip2)"><path d="M31 31 20 31 20 24 31 24 31 31ZM46 24 46 31 35 31 35 24 46 24ZM61 24 61 31 50 31 50 24 61 24ZM76 24 76 31 65 31 65 24 76 24ZM76 42 65 42 65 35 76 35 76 42ZM76 50.5 65 51.5 65 46 76 46 76 50.5ZM31 46 31 54.5 20 55.5 20 46 31 46ZM31 42 20 42 20 35 31 35 31 42ZM46 42 35 42 35 35 46 35 46 42ZM50 42 50 35 61 35 61 42 50 42ZM46 53.2 35 54.2 35 46 46 46 46 53.2ZM50 46 61 46 61 51.8 50 52.8 50 46ZM82 56 82 18 20 18 20 17C20 12 16 8 11 8 9.3 8 8 9.3 8 11 8 12.7 9.3 14 11 14 12.7 14 14 15.3 14 17L14 67C14 72 18 76 23 76L26 76 70 76 79 76C80.7 76 82 74.7 82 73 82 71.3 80.7 70 79 70L23 70C21.3 70 20 68.7 20 67L20 61.5 82 56Z" fill="#FFFFFF" transform="matrix(1 0 0 1.00221 123 278.394)"/><path d="M32 82C32 85.3137 29.3137 88 26 88 22.6863 88 20 85.3137 20 82 20 78.6863 22.6863 76 26 76 29.3137 76 32 78.6863 32 82Z" fill="#FFFFFF" transform="matrix(1 0 0 1.00221 123 278.394)"/><path d="M76 82C76 85.3137 73.3137 88 70 88 66.6863 88 64 85.3137 64 82 64 78.6863 66.6863 76 70 76 73.3137 76 76 78.6863 76 82Z" fill="#FFFFFF" transform="matrix(1 0 0 1.00221 123 278.394)"/></g></g></g></svg>